<?xml version="1.0" encoding="UTF-8"?><svg id="Layer_1" xmlns="http://www.w3.org/2000/svg" viewBox="0 0 48.53 10.9"><path d="m0,8.4V0h3.24c.91,0,1.7.18,2.36.54s1.16.85,1.5,1.49.5,1.38.5,2.23c0,.6-.1,1.15-.3,1.66s-.48.94-.84,1.31-.82.66-1.37.86-1.15.31-1.82.31H0ZM1.62,1.46v5.46h1.62c.88,0,1.55-.25,2.02-.75s.71-1.14.71-1.92c0-.87-.24-1.55-.71-2.05s-1.16-.74-2.05-.74h-1.59Z"/><path d="m8.76,1.86V.24h1.64v1.62h-1.64Zm.05.85h1.54v5.69h-1.54V2.71Z"/><path d="m11.78,9.18l1.35-.6c.09.33.25.59.49.76s.54.27.89.27c.45,0,.8-.14,1.03-.42s.35-.68.35-1.19v-.54c-.35.6-.96.9-1.82.9-.74,0-1.36-.26-1.85-.79s-.74-1.2-.74-2.03c0-.44.07-.84.21-1.22s.34-.69.58-.94.53-.45.86-.59.68-.21,1.04-.21c.77,0,1.35.26,1.72.79v-.67h1.52v5.17c0,.93-.25,1.67-.76,2.21s-1.23.81-2.18.81c-1.4,0-2.3-.57-2.7-1.72Zm4.16-3.67c0-.48-.14-.86-.41-1.15s-.63-.44-1.06-.44-.77.15-1.04.45-.41.69-.41,1.19c0,.47.14.84.41,1.12s.63.42,1.06.42.76-.15,1.03-.45.41-.67.41-1.13Z"/><path d="m18.84,1.86V.24h1.64v1.62h-1.64Zm.05.85h1.54v5.69h-1.54V2.71Z"/><path d="m23.59,1.12v7.28h-1.62V0h2.79l3.49,7.29V0h1.62v8.4h-2.79l-3.49-7.28Z"/><path d="m35.45,6.23l1.31.52c-.2.56-.53.99-.98,1.31s-1.01.47-1.66.47c-.89,0-1.61-.28-2.17-.83s-.84-1.28-.84-2.17c0-.54.12-1.03.35-1.47s.57-.8,1-1.06.93-.39,1.47-.39c.79,0,1.43.23,1.91.7s.73,1.08.73,1.86c0,.23-.03.46-.08.7h-3.86c0,.42.15.75.44.99.29.24.64.36,1.06.36.7,0,1.14-.32,1.32-.97Zm-2.82-1.4h2.44v-.05c.01-.29-.09-.51-.31-.69s-.49-.26-.84-.26c-.32,0-.59.09-.83.27-.24.18-.39.42-.46.73Z"/><path d="m42.54,2.71l-1.85,2.68,2.07,3.01h-1.74l-1.17-1.81-1.15,1.81h-1.73l2.06-3.01-1.85-2.68h1.74l.94,1.49.95-1.49h1.74Z"/><path d="m44.27,6.48v-2.51h-1.18v-1.26h1.18V.84h1.52v1.87h2.13v1.26h-2.13v2.51c0,.21.06.38.18.5s.27.18.47.18c.4,0,.63-.26.67-.79l1.42.26c-.08.6-.3,1.06-.67,1.39s-.86.49-1.45.49c-.68,0-1.21-.18-1.58-.54s-.55-.86-.55-1.49Z"/></svg>